<svg xmlns="http://www.w3.org/2000/svg" height="48px" viewBox="0 -960 960 960" width="48px" fill="#e3e3e3"><path d="M140.11-143.33q-32.44 0-54.87-22.43-22.44-22.43-22.44-54.87v-518.74q0-32.53 22.44-55.04 22.43-22.5 54.87-22.5h679.78q32.54 0 55.04 22.5 22.5 22.51 22.5 55.04v518.74q0 32.44-22.5 54.87t-55.04 22.43H140.11Zm0-77.3h679.78v-518.74H140.11v518.74Zm306.8-68.2h66.42l6.76-47.59q18.28-5.39 35.74-15.18 17.45-9.79 31.02-23.27l42.24 20.52L663.41-407l-42.32-35.04q4-18.68 4-37.62 0-18.94-4-37.54l42.32-35.38-34.31-53.31-42.34 20.52q-13.48-13.24-30.93-23.03-17.46-9.79-35.87-15.35l-6.65-47.42h-66.37l-6.79 47.37q-18.52 5.61-35.48 15.4-16.95 9.79-31.52 23.03l-42-20.52-34.56 53.41 42.56 35.28q-4.24 18.56-4.24 37.62t4.24 37.54L296.59-407l34.55 52.65 42.1-20.52q14.48 13.48 31.43 23.27 16.96 9.79 35.58 15.11l6.66 47.66Zm-24.74-133.56q-24.02-24.23-24.02-57.82t24.24-57.74q24.23-24.14 57.82-24.14t57.74 24.36q24.14 24.35 24.14 57.94 0 33.59-24.36 57.62-24.35 24.02-57.94 24.02-33.59 0-57.62-24.24ZM140.11-220.63v-518.74 518.74Z"/></svg>